<svg xmlns="http://www.w3.org/2000/svg" viewBox="0 0 864 864"><circle fill="#F69223" cx="432" cy="432" r="411"/><path fill="#F69223" d="M819.5 569.2L477.7 235.7 380 248l-2 76.5-31 25-5.7 154.4 32.7 26.6-1.3 89.6L572 818.5c115.3-41.7 206.6-133.6 247.5-249.3z"/><path opacity=".12" d="M819.5 569.2L477.7 235.7 380 248l-2 76.5-31 25-5.7 154.4 32.7 26.6-1.3 89.6L572 818.5c115.3-41.7 206.6-133.6 247.5-249.3z"/><g><path fill="#FFF" d="M477.7 620.1h-105c-3.4-30.6-5.7-58.3-7.2-84.1-1.6-25.8-2.5-49.9-3-73.3s-.5-46.2 0-69.6c.5-23.4 1.4-47.4 3-73.2 1.6-25.8 3.8-53.5 7.2-84.1h105c3.4 30.7 5.7 58.3 7.3 84.1 1.6 25.8 2.5 49.8 3 73.2.5 23.4.5 46.2 0 69.6-.5 23.4-1.4 47.4-3 73.3-1.7 25.8-3.9 53.4-7.3 84.1z"/><path fill="#F9941F" stroke="#FFF" stroke-width="22.764" stroke-miterlimit="10" d="M509.7 498.9c0 11.5-9.3 20.7-20.7 20.7H361.4c-11.4 0-20.7-9.3-20.7-20.7V356.8c0-11.5 9.3-20.7 20.7-20.7h127.5c11.4 0 20.7 9.3 20.7 20.7v142.1z"/><path fill="#F9941F" stroke="#FFF" stroke-width="10.766" stroke-miterlimit="10" d="M490.7 427.9c0 36.2-29.3 65.5-65.5 65.5s-65.5-29.3-65.5-65.5 29.3-65.5 65.5-65.5 65.5 29.3 65.5 65.5z"/><path fill="#FFF" d="M409.8 400.4l47.5 27.5-47.5 27.4"/></g></svg>