
<!-- Generator: Adobe Illustrator 17.1.0, SVG Export Plug-In . SVG Version: 6.00 Build 0)  -->
<!DOCTYPE svg PUBLIC "-//W3C//DTD SVG 1.1//EN" "http://www.w3.org/Graphics/SVG/1.1/DTD/svg11.dtd">
<svg version="1.1" xmlns="http://www.w3.org/2000/svg" xmlns:xlink="http://www.w3.org/1999/xlink" x="0px" y="0px"
	 viewBox="0 0 864 864" enable-background="new 0 0 864 864" xml:space="preserve">
<g id="Circle">
	<circle fill="#F69223" cx="432" cy="432" r="411"/>
</g>
<g id="Shadow">
	<g>
		<path fill="#F69223" d="M819.5,569.2L477.7,235.7L380,248l-2,76.5l-31,25l-5.7,154.4l32.7,26.6l-1.3,89.6L572,818.5
			C687.3,776.8,778.6,684.9,819.5,569.2z"/>
		<path opacity="0.12" d="M819.5,569.2L477.7,235.7L380,248l-2,76.5l-31,25l-5.7,154.4l32.7,26.6l-1.3,89.6L572,818.5
			C687.3,776.8,778.6,684.9,819.5,569.2z"/>
	</g>
</g>
<g id="icon">
	<g>
		<path fill="#FFFFFF" d="M477.7,620.1c-21,0-36.8,0-52.5,0c-15.8,0-31.5,0-52.5,0c-3.4-30.6-5.7-58.3-7.2-84.1
			c-1.6-25.8-2.5-49.9-3-73.3c-0.5-23.4-0.5-46.2,0-69.6c0.5-23.4,1.4-47.4,3-73.2c1.6-25.8,3.8-53.5,7.2-84.1c21,0,36.7,0,52.5,0
			c15.7,0,31.5,0,52.5,0c3.4,30.7,5.7,58.3,7.3,84.1c1.6,25.8,2.5,49.8,3,73.2c0.5,23.4,0.5,46.2,0,69.6c-0.5,23.4-1.4,47.4-3,73.3
			C483.3,561.8,481.1,589.4,477.7,620.1z"/>
	</g>
	<path fill="#F9941F" stroke="#FFFFFF" stroke-width="22.7641" stroke-miterlimit="10" d="M509.7,498.9c0,11.5-9.3,20.7-20.7,20.7
		H361.4c-11.4,0-20.7-9.3-20.7-20.7V356.8c0-11.5,9.3-20.7,20.7-20.7h127.5c11.4,0,20.7,9.3,20.7,20.7V498.9z"/>
	<path fill="#F9941F" stroke="#FFFFFF" stroke-width="10.7664" stroke-miterlimit="10" d="M490.7,427.9c0,36.2-29.3,65.5-65.5,65.5
		c-36.2,0-65.5-29.3-65.5-65.5c0-36.2,29.3-65.5,65.5-65.5C461.4,362.4,490.7,391.7,490.7,427.9z"/>
	<polygon fill="#FFFFFF" points="409.8,400.4 457.3,427.9 409.8,455.3 	"/>
</g>
</svg>
