<svg xmlns="http://www.w3.org/2000/svg" xmlns:xlink="http://www.w3.org/1999/xlink" viewBox="0 0 864 864"><circle fill="#F69223" cx="432" cy="432" r="411"/><path fill="#F69223" d="M826.5 547.6L568.8 296.4l-266.2 2.3-8 211.5 301 299c111-48.3 196.5-144 230.9-261.6z"/><path opacity=".12" d="M826.5 547.6L568.8 296.4l-266.2 2.3-8 211.5 301 299c111-48.3 196.5-144 230.9-261.6z"/><g><defs><path id="a" d="M292.3 295H572v279.7H292.3z"/></defs><clipPath id="b"><use xlink:href="#a" overflow="visible"/></clipPath><path clip-path="url(#b)" fill="#FFF" d="M564.5 295H299.8c-4.1 0-7.5 3.4-7.5 7.5v202.3c0 4.1 3.4 7.5 7.5 7.5h264.7c4.1 0 7.5-3.4 7.5-7.5V302.5c0-4.1-3.4-7.5-7.5-7.5M432.2 501c-2.8 0-5-2.2-5-5s2.2-5 5-5 5 2.2 5 5-2.3 5-5 5M557 479.8H307.3V310H557v169.8zM412.2 522.2v37.5h-42.5c-4.1 0-7.5 3.4-7.5 7.5s3.4 7.5 7.5 7.5h124.9c4.1 0 7.5-3.4 7.5-7.5s-3.4-7.5-7.5-7.5h-42.5v-37.5h-39.9z"/><path clip-path="url(#b)" fill="#FFF" d="M356 471c2.8 0 5-2.2 5-5v-75.7l16.7-22.2c2.6 1.2 5.4 1.8 8.3 1.8 2.9 0 5.7-.6 8.3-1.8l16.7 22.2V466c0 2.8 2.2 5 5 5s5-2.2 5-5v-77.4c0-1.1-.3-2.1-1-3l-30-40c-.9-1.3-2.4-2-4-2s-3.1.7-4 2l-30 40c-.6.9-1 1.9-1 3V466c0 2.8 2.2 5 5 5"/><path clip-path="url(#b)" fill="#FFF" d="M386 383.6c-2.8 0-5 2.2-5 5V466c0 2.8 2.2 5 5 5s5-2.2 5-5v-77.4c0-2.7-2.3-5-5-5M450.5 408.4c-.7 4.7-1.9 13.7-2.1 20.3-9.9 21.5-10 36.7-10 37.3 0 2.8 2.2 5 5 5 2.7 0 5-2.2 5-5 0-.1.2-12.9 8.2-31.2h33.5c8 18.2 8.2 31 8.2 31.2 0 2.8 2.2 5 5 5s5-2.2 5-5c0-.6-.1-15.9-10-37.3-.1-6.6-1.4-15.6-2.1-20.3 5-3.9 14.6-13.3 14.6-28.5 0-15.1-11.8-23.8-21.2-30.7-5.8-4.2-11.2-8.2-11.2-11.7 0-1.7-.9-3.3-2.3-4.2-1.4-.9-3.2-1.1-4.7-.4-24.5 10.8-35.4 31.4-35.4 47-.1 15.2 9.5 24.6 14.5 28.5m9.5 4h26.7c.5 3.5 1.1 8.2 1.4 12.5h-29.5c.3-4.3.9-9 1.4-12.5"/></g></svg>