<?xml version="1.0" encoding="utf-8"?>
<!-- Generator: Adobe Illustrator 17.1.0, SVG Export Plug-In . SVG Version: 6.00 Build 0)  -->
<!DOCTYPE svg PUBLIC "-//W3C//DTD SVG 1.1//EN" "http://www.w3.org/Graphics/SVG/1.1/DTD/svg11.dtd">
<svg version="1.1" xmlns="http://www.w3.org/2000/svg" xmlns:xlink="http://www.w3.org/1999/xlink" x="0px" y="0px"
	 viewBox="0 0 864 864" enable-background="new 0 0 864 864" xml:space="preserve">
<g id="Layer_1">
	<circle fill="#F69223" cx="432" cy="432" r="411"/>
</g>
<g id="Shadow">
	<g>
		<path fill="#F69223" d="M826.5,547.6L568.8,296.4l-266.2,2.3l-8,211.5l301,299C706.6,760.9,792.1,665.2,826.5,547.6z"/>
		<path opacity="0.12" d="M826.5,547.6L568.8,296.4l-266.2,2.3l-8,211.5l301,299C706.6,760.9,792.1,665.2,826.5,547.6z"/>
	</g>
</g>
<g id="icon">
	<g>
		<defs>
			<rect id="SVGID_1_" x="292.3" y="295" width="279.7" height="279.7"/>
		</defs>
		<clipPath id="SVGID_2_">
			<use xlink:href="#SVGID_1_"  overflow="visible"/>
		</clipPath>
		<path clip-path="url(#SVGID_2_)" fill="#FFFFFF" d="M564.5,295H299.8c-4.1,0-7.5,3.4-7.5,7.5v202.3c0,4.1,3.4,7.5,7.5,7.5h264.7
			c4.1,0,7.5-3.4,7.5-7.5V302.5C572,298.4,568.6,295,564.5,295 M432.2,501c-2.8,0-5-2.2-5-5s2.2-5,5-5s5,2.2,5,5
			S434.9,501,432.2,501 M557,479.8H307.3V310H557V479.8z"/>
		<path clip-path="url(#SVGID_2_)" fill="#FFFFFF" d="M412.2,522.2v37.5h-42.5c-4.1,0-7.5,3.4-7.5,7.5s3.4,7.5,7.5,7.5h124.9
			c4.1,0,7.5-3.4,7.5-7.5s-3.4-7.5-7.5-7.5h-42.5v-37.5H412.2z"/>
		<path clip-path="url(#SVGID_2_)" fill="#FFFFFF" d="M356,471c2.8,0,5-2.2,5-5v-75.7l16.7-22.2c2.6,1.2,5.4,1.8,8.3,1.8
			c2.9,0,5.7-0.6,8.3-1.8l16.7,22.2V466c0,2.8,2.2,5,5,5s5-2.2,5-5v-77.4c0-1.1-0.3-2.1-1-3l-30-40c-0.9-1.3-2.4-2-4-2
			c-1.6,0-3.1,0.7-4,2l-30,40c-0.6,0.9-1,1.9-1,3V466C351,468.8,353.2,471,356,471"/>
		<path clip-path="url(#SVGID_2_)" fill="#FFFFFF" d="M386,383.6c-2.8,0-5,2.2-5,5V466c0,2.8,2.2,5,5,5c2.8,0,5-2.2,5-5v-77.4
			C391,385.9,388.7,383.6,386,383.6"/>
		<path clip-path="url(#SVGID_2_)" fill="#FFFFFF" d="M450.5,408.4c-0.7,4.7-1.9,13.7-2.1,20.3c-9.9,21.5-10,36.7-10,37.3
			c0,2.8,2.2,5,5,5h0c2.7,0,5-2.2,5-5c0-0.1,0.2-12.9,8.2-31.2h33.5c8,18.2,8.2,31,8.2,31.2c0,2.8,2.2,5,5,5c2.8,0,5-2.2,5-5
			c0-0.6-0.1-15.9-10-37.3c-0.1-6.6-1.4-15.6-2.1-20.3c5-3.9,14.6-13.3,14.6-28.5c0-15.1-11.8-23.8-21.2-30.7
			c-5.8-4.2-11.2-8.2-11.2-11.7c0-1.7-0.9-3.3-2.3-4.2c-1.4-0.9-3.2-1.1-4.7-0.4c-24.5,10.8-35.4,31.4-35.4,47
			C435.9,395.1,445.5,404.5,450.5,408.4 M460,412.4h26.7c0.5,3.5,1.1,8.2,1.4,12.5h-29.5C458.9,420.6,459.5,415.9,460,412.4"/>
	</g>
</g>
</svg>
