
<!-- Generator: Adobe Illustrator 17.1.0, SVG Export Plug-In . SVG Version: 6.00 Build 0)  -->
<!DOCTYPE svg PUBLIC "-//W3C//DTD SVG 1.1//EN" "http://www.w3.org/Graphics/SVG/1.1/DTD/svg11.dtd">
<svg version="1.1" xmlns="http://www.w3.org/2000/svg" xmlns:xlink="http://www.w3.org/1999/xlink" x="0px" y="0px"
	 viewBox="0 0 864 864" enable-background="new 0 0 864 864" xml:space="preserve">
<g id="Layer_1">
	<circle fill="#F69223" cx="432" cy="432" r="411"/>
</g>
<g id="Shadow">
	<g>
		<path fill="#F69223" d="M842.4,454.7L670.1,286.3H457.5L455.2,407l-96.5-94.2L319,406.3l85,86.7l-163.7,78l267,265.1
			C691.1,802,832,645.7,842.4,454.7z"/>
		<path opacity="0.12" fill="#020202" d="M842.4,454.7L670.1,286.3H457.5L455.2,407l-96.5-94.2L319,406.3l85,86.7l-163.7,78
			l267,265.1C691.1,802,832,645.7,842.4,454.7z"/>
	</g>
</g>
<g id="icon">
	<g>
		<defs>
			<rect id="SVGID_1_" x="237" y="283" width="433.1" height="288"/>
		</defs>
		<clipPath id="SVGID_2_">
			<use xlink:href="#SVGID_1_"  overflow="visible"/>
		</clipPath>
		<path clip-path="url(#SVGID_2_)" fill="#FFFFFF" d="M665.9,283H453.2c-2.3,0-4.3,1.9-4.3,4.3v164.3c3,2.2,5.4,4.9,7.8,7.5
			l0.7-167.6h204.2v169.9c2.8,0.9,5.8,2,8.5,3.8v-178C670.1,284.9,668.2,283,665.9,283"/>
		<path clip-path="url(#SVGID_2_)" fill="#FFFFFF" d="M637.3,367.6V405c3,0,5.8,0.5,8.5,1.3v-43c0-2.4-1.9-4.3-4.3-4.3H554
			c-2.4,0-4.3,1.9-4.3,4.3v102.5c0,2.4,1.9,4.3,4.3,4.3h43.9c3.4-4.7,8.4-7,13.1-8.5h-52.7v-94H637.3z"/>
		<rect x="474.5" y="308.5" clip-path="url(#SVGID_2_)" fill="#FFFFFF" width="57.4" height="42.5"/>
		<path clip-path="url(#SVGID_2_)" fill="#FFFFFF" d="M553.2,317h87.2c2.3,0,4.3-1.9,4.3-4.3s-1.9-4.3-4.3-4.3h-87.2
			c-2.3,0-4.3,1.9-4.3,4.3S550.8,317,553.2,317"/>
		<path clip-path="url(#SVGID_2_)" fill="#FFFFFF" d="M553.2,334h87.2c2.3,0,4.3-1.9,4.3-4.3s-1.9-4.3-4.3-4.3h-87.2
			c-2.3,0-4.3,1.9-4.3,4.3S550.8,334,553.2,334"/>
		<path clip-path="url(#SVGID_2_)" fill="#FFFFFF" d="M553.2,351.1h87.2c2.3,0,4.3-1.9,4.3-4.3s-1.9-4.3-4.3-4.3h-87.2
			c-2.3,0-4.3,1.9-4.3,4.3S550.8,351.1,553.2,351.1"/>
		<path clip-path="url(#SVGID_2_)" fill="#FFFFFF" d="M527.6,359.6h-48.9c-2.3,0-4.3,1.9-4.3,4.3s1.9,4.3,4.3,4.3h48.9
			c2.3,0,4.3-1.9,4.3-4.3S530,359.6,527.6,359.6"/>
		<path clip-path="url(#SVGID_2_)" fill="#FFFFFF" d="M527.6,376.6h-48.9c-2.3,0-4.3,1.9-4.3,4.3s1.9,4.3,4.3,4.3h48.9
			c2.3,0,4.3-1.9,4.3-4.3S530,376.6,527.6,376.6"/>
		<path clip-path="url(#SVGID_2_)" fill="#FFFFFF" d="M527.6,393.6h-48.9c-2.3,0-4.3,1.9-4.3,4.3s1.9,4.3,4.3,4.3h48.9
			c2.3,0,4.3-1.9,4.3-4.3S530,393.6,527.6,393.6"/>
		<path clip-path="url(#SVGID_2_)" fill="#FFFFFF" d="M527.6,410.6h-48.9c-2.3,0-4.3,1.9-4.3,4.3s1.9,4.3,4.3,4.3h48.9
			c2.3,0,4.3-1.9,4.3-4.3S530,410.6,527.6,410.6"/>
		<path clip-path="url(#SVGID_2_)" fill="#FFFFFF" d="M527.6,427.6h-48.9c-2.3,0-4.3,1.9-4.3,4.3s1.9,4.3,4.3,4.3h48.9
			c2.3,0,4.3-1.9,4.3-4.3S530,427.6,527.6,427.6"/>
		<path clip-path="url(#SVGID_2_)" fill="#FFFFFF" d="M409.4,568.8c1.4-1.5,2-3,2-5.1c0-26.6,0-41,0-50.9c0-2.3-0.1-4.7-0.1-7.2
			l25.1,25.6c7.5,7.6,19.8,7.8,27.4,0.3c0,0,0.1-0.1,0.1-0.1l0,0l54.8-54.8c7.6-7.6,7.6-19.8,0-27.4c-7.6-7.6-19.8-7.6-27.4,0
			l-41,41l-53.6-54.6c-8.7-10.4-26.1-12.1-38.7-17c-3.3-1.1-7.3-2.6-33.9-2.6c-26.6,0-30.1,1.5-33.9,2.6
			c-14.1,5.5-34.5,7.1-41.5,21.3c-7.3,14.6-11.8,47-11.8,73c0,9.9,0,24.2,0,50.9c0,2,0.6,3.6,2,5.1c1.4,1.5,3.3,2.2,5.3,2.2h159.9
			C406.2,571,408,570.3,409.4,568.8"/>
		<path clip-path="url(#SVGID_2_)" fill="#FFFFFF" d="M324.2,408.9c12.3,0,22.6-9.7,29.9-22.5c7.5-13.1,16.1-43,13-57.1
			c-4.3-19.8-23.6-31.8-43-31.8c-19.3,0-38.6,12.1-43,31.8c-3.1,14.1,5.5,44,13,57.1C301.6,399.2,311.9,408.9,324.2,408.9"/>
		<path clip-path="url(#SVGID_2_)" fill="#FFFFFF" d="M558.2,461.6v-37.5c-3,0-5.8-0.5-8.5-1.3v43c0,2.4,1.9,4.3,4.3,4.3h87.6
			c2.4,0,4.3-1.9,4.3-4.3V363.4c0-2.4-1.9-4.3-4.3-4.3h-43.9c-3.4,4.7-8.4,7-13.1,8.5h52.7v94H558.2z"/>
		<path clip-path="url(#SVGID_2_)" fill="#FFFFFF" d="M662.4,330.6L661.6,496H530.4c-2.3,3-5.5,5.5-8,8.5h143.5
			c2.3,0,4.3-1.9,4.3-4.3V337.1C667.2,337.1,665.1,331.4,662.4,330.6"/>
	</g>
</g>
</svg>
