<svg xmlns="http://www.w3.org/2000/svg" xmlns:xlink="http://www.w3.org/1999/xlink" viewBox="0 0 864 864"><circle fill="#F69223" cx="432" cy="432" r="411"/><path fill="#F69223" d="M842.4 454.7L670.1 286.3H457.5L455.2 407l-96.5-94.2-39.7 93.5 85 86.7-163.7 78 267 265.1C691.1 802 832 645.7 842.4 454.7z"/><path opacity=".12" fill="#020202" d="M842.4 454.7L670.1 286.3H457.5L455.2 407l-96.5-94.2-39.7 93.5 85 86.7-163.7 78 267 265.1C691.1 802 832 645.7 842.4 454.7z"/><g><defs><path id="a" d="M237 283h433.1v288H237z"/></defs><clipPath id="b"><use xlink:href="#a" overflow="visible"/></clipPath><path clip-path="url(#b)" fill="#FFF" d="M665.9 283H453.2c-2.3 0-4.3 1.9-4.3 4.3v164.3c3 2.2 5.4 4.9 7.8 7.5l.7-167.6h204.2v169.9c2.8.9 5.8 2 8.5 3.8v-178c0-2.3-1.9-4.2-4.2-4.2M637.3 367.6V405c3 0 5.8.5 8.5 1.3v-43c0-2.4-1.9-4.3-4.3-4.3H554c-2.4 0-4.3 1.9-4.3 4.3v102.5c0 2.4 1.9 4.3 4.3 4.3h43.9c3.4-4.7 8.4-7 13.1-8.5h-52.7v-94h79z"/><path clip-path="url(#b)" fill="#FFF" d="M474.5 308.5h57.4V351h-57.4zM553.2 317h87.2c2.3 0 4.3-1.9 4.3-4.3s-1.9-4.3-4.3-4.3h-87.2c-2.3 0-4.3 1.9-4.3 4.3s1.9 4.3 4.3 4.3M553.2 334h87.2c2.3 0 4.3-1.9 4.3-4.3s-1.9-4.3-4.3-4.3h-87.2c-2.3 0-4.3 1.9-4.3 4.3s1.9 4.3 4.3 4.3M553.2 351.1h87.2c2.3 0 4.3-1.9 4.3-4.3s-1.9-4.3-4.3-4.3h-87.2c-2.3 0-4.3 1.9-4.3 4.3s1.9 4.3 4.3 4.3M527.6 359.6h-48.9c-2.3 0-4.3 1.9-4.3 4.3s1.9 4.3 4.3 4.3h48.9c2.3 0 4.3-1.9 4.3-4.3s-1.9-4.3-4.3-4.3M527.6 376.6h-48.9c-2.3 0-4.3 1.9-4.3 4.3s1.9 4.3 4.3 4.3h48.9c2.3 0 4.3-1.9 4.3-4.3s-1.9-4.3-4.3-4.3M527.6 393.6h-48.9c-2.3 0-4.3 1.9-4.3 4.3s1.9 4.3 4.3 4.3h48.9c2.3 0 4.3-1.9 4.3-4.3s-1.9-4.3-4.3-4.3M527.6 410.6h-48.9c-2.3 0-4.3 1.9-4.3 4.3s1.9 4.3 4.3 4.3h48.9c2.3 0 4.3-1.9 4.3-4.3s-1.9-4.3-4.3-4.3M527.6 427.6h-48.9c-2.3 0-4.3 1.9-4.3 4.3s1.9 4.3 4.3 4.3h48.9c2.3 0 4.3-1.9 4.3-4.3s-1.9-4.3-4.3-4.3M409.4 568.8c1.4-1.5 2-3 2-5.1v-50.9c0-2.3-.1-4.7-.1-7.2l25.1 25.6c7.5 7.6 19.8 7.8 27.4.3l.1-.1 54.8-54.8c7.6-7.6 7.6-19.8 0-27.4-7.6-7.6-19.8-7.6-27.4 0l-41 41-53.6-54.6c-8.7-10.4-26.1-12.1-38.7-17-3.3-1.1-7.3-2.6-33.9-2.6-26.6 0-30.1 1.5-33.9 2.6-14.1 5.5-34.5 7.1-41.5 21.3-7.3 14.6-11.8 47-11.8 73v50.9c0 2 .6 3.6 2 5.1 1.4 1.5 3.3 2.2 5.3 2.2h159.9c2.1-.1 3.9-.8 5.3-2.3M324.2 408.9c12.3 0 22.6-9.7 29.9-22.5 7.5-13.1 16.1-43 13-57.1-4.3-19.8-23.6-31.8-43-31.8-19.3 0-38.6 12.1-43 31.8-3.1 14.1 5.5 44 13 57.1 7.5 12.8 17.8 22.5 30.1 22.5M558.2 461.6v-37.5c-3 0-5.8-.5-8.5-1.3v43c0 2.4 1.9 4.3 4.3 4.3h87.6c2.4 0 4.3-1.9 4.3-4.3V363.4c0-2.4-1.9-4.3-4.3-4.3h-43.9c-3.4 4.7-8.4 7-13.1 8.5h52.7v94h-79.1z"/><path clip-path="url(#b)" fill="#FFF" d="M662.4 330.6l-.8 165.4H530.4c-2.3 3-5.5 5.5-8 8.5h143.5c2.3 0 4.3-1.9 4.3-4.3V337.1c-3 0-5.1-5.7-7.8-6.5"/></g></svg>