<svg xmlns="http://www.w3.org/2000/svg" xmlns:xlink="http://www.w3.org/1999/xlink" viewBox="0 0 864 864"><circle fill="#F69223" cx="432" cy="432" r="411"/><path fill="#F69223" d="M812.6 587.5L515.2 289H341l-8.6 316 220.5 219.9c118-36.2 213.3-124.2 259.7-237.4z"/><path opacity=".12" d="M812.6 587.5L515.2 289H341l-8.6 316 220.5 219.9c118-36.2 213.3-124.2 259.7-237.4z"/><g><defs><path id="a" d="M329.6 282.5h185.7v325.8H329.6z"/></defs><clipPath id="b"><use xlink:href="#a" overflow="visible"/></clipPath><path clip-path="url(#b)" fill="#FFF" d="M504.7 282.5H340.1c-5.8 0-10.5 4.7-10.5 10.5v304.8c0 5.8 4.7 10.5 10.5 10.5h164.7c5.8 0 10.5-4.7 10.5-10.5V293c-.1-5.8-4.8-10.5-10.6-10.5m-82.3 311.8c-3.9 0-7-3.1-7-7s3.1-7 7-7 7 3.1 7 7-3.1 7-7 7m71.8-28H350.6V303.5h143.7v262.8z"/><path clip-path="url(#b)" fill="#FFF" d="M360.8 560.5c2.4 0 4.3-1.9 4.3-4.3v-149l14.5-19.4c2.3 1 4.7 1.6 7.3 1.6 2.5 0 4.9-.5 7.2-1.6l14.5 19.3V556c0 2.4 1.9 4.3 4.3 4.3s4.3-1.9 4.3-4.3V405.8c0-.9-.3-1.9-.9-2.6l-26.1-34.8c-.8-1.1-2.1-1.7-3.5-1.7s-2.7.6-3.5 1.7l-26.1 34.8c-.6.8-.9 1.7-.9 2.6v150.3c.2 2.4 2.2 4.4 4.6 4.4M437.2 411c-.6 4.1-1.7 11.9-1.8 17.7-8.6 18.7-8.7 126.8-8.7 127.4 0 2.4 1.9 4.3 4.3 4.3s4.3-1.9 4.3-4.3c0-.1.2-106.2 7.1-122.1h29.2c7 15.9 7.1 121.9 7.1 122.1 0 2.4 1.9 4.3 4.3 4.3s4.3-1.9 4.3-4.3c0-.6-.1-108.7-8.7-127.4-.1-5.7-1.2-13.6-1.8-17.7 4.3-3.4 12.7-11.6 12.7-24.8 0-13.2-10.2-20.7-18.5-26.7-5-3.7-9.8-7.2-9.8-10.2 0-1.5-.7-2.8-2-3.6-1.2-.8-2.8-.9-4.1-.3-21.3 9.4-30.8 27.3-30.8 40.9.3 13.1 8.6 21.3 12.9 24.7m8.3 3.4h23.3c.4 3.1.9 7.2 1.2 10.9h-25.7c.3-3.7.8-7.8 1.2-10.9"/></g></svg>