
<!-- Generator: Adobe Illustrator 17.1.0, SVG Export Plug-In . SVG Version: 6.00 Build 0)  -->
<!DOCTYPE svg PUBLIC "-//W3C//DTD SVG 1.1//EN" "http://www.w3.org/Graphics/SVG/1.1/DTD/svg11.dtd">
<svg version="1.1" xmlns="http://www.w3.org/2000/svg" xmlns:xlink="http://www.w3.org/1999/xlink" x="0px" y="0px"
	 viewBox="0 0 864 864" enable-background="new 0 0 864 864" xml:space="preserve">
<g id="Layer_1">
	<circle fill="#F69223" cx="432" cy="432" r="411"/>
</g>
<g id="shadow">
	<g>
		<path fill="#F69223" d="M812.6,587.5L515.2,289H341l-8.6,316l220.5,219.9C670.9,788.7,766.2,700.7,812.6,587.5z"/>
		<path opacity="0.12" d="M812.6,587.5L515.2,289H341l-8.6,316l220.5,219.9C670.9,788.7,766.2,700.7,812.6,587.5z"/>
	</g>
</g>
<g id="icon">
	<g>
		<defs>
			<rect id="SVGID_1_" x="329.6" y="282.5" width="185.7" height="325.8"/>
		</defs>
		<clipPath id="SVGID_2_">
			<use xlink:href="#SVGID_1_"  overflow="visible"/>
		</clipPath>
		<path clip-path="url(#SVGID_2_)" fill="#FFFFFF" d="M504.7,282.5H340.1c-5.8,0-10.5,4.7-10.5,10.5v304.8c0,5.8,4.7,10.5,10.5,10.5
			h164.7c5.8,0,10.5-4.7,10.5-10.5V293C515.2,287.2,510.5,282.5,504.7,282.5 M422.4,594.3c-3.9,0-7-3.1-7-7s3.1-7,7-7s7,3.1,7,7
			S426.3,594.3,422.4,594.3 M494.2,566.3H350.6V303.5h143.7V566.3z"/>
		<path clip-path="url(#SVGID_2_)" fill="#FFFFFF" d="M360.8,560.5c2.4,0,4.3-1.9,4.3-4.3V407.2l14.5-19.4c2.3,1,4.7,1.6,7.3,1.6
			c2.5,0,4.9-0.5,7.2-1.6l14.5,19.3v148.9c0,2.4,1.9,4.3,4.3,4.3c2.4,0,4.3-1.9,4.3-4.3V405.8c0-0.9-0.3-1.9-0.9-2.6l-26.1-34.8
			c-0.8-1.1-2.1-1.7-3.5-1.7c-1.4,0-2.7,0.6-3.5,1.7l-26.1,34.8c-0.6,0.8-0.9,1.7-0.9,2.6v150.3
			C356.4,558.5,358.4,560.5,360.8,560.5"/>
		<path clip-path="url(#SVGID_2_)" fill="#FFFFFF" d="M437.2,411c-0.6,4.1-1.7,11.9-1.8,17.7c-8.6,18.7-8.7,126.8-8.7,127.4
			c0,2.4,1.9,4.3,4.3,4.3h0c2.4,0,4.3-1.9,4.3-4.3c0-0.1,0.2-106.2,7.1-122.1h29.2c7,15.9,7.1,121.9,7.1,122.1
			c0,2.4,1.9,4.3,4.3,4.3c2.4,0,4.3-1.9,4.3-4.3c0-0.6-0.1-108.7-8.7-127.4c-0.1-5.7-1.2-13.6-1.8-17.7c4.3-3.4,12.7-11.6,12.7-24.8
			c0-13.2-10.2-20.7-18.5-26.7c-5-3.7-9.8-7.2-9.8-10.2c0-1.5-0.7-2.8-2-3.6c-1.2-0.8-2.8-0.9-4.1-0.3
			c-21.3,9.4-30.8,27.3-30.8,40.9C424.6,399.4,432.9,407.6,437.2,411 M445.5,414.4h23.3c0.4,3.1,0.9,7.2,1.2,10.9h-25.7
			C444.6,421.6,445.1,417.5,445.5,414.4"/>
	</g>
</g>
</svg>
