<svg xmlns="http://www.w3.org/2000/svg" xmlns:xlink="http://www.w3.org/1999/xlink" viewBox="0 0 864 864"><circle fill="#F69223" cx="432" cy="432" r="411"/><path fill="#F69223" d="M829.3 537.8L599.4 298.7l-329.7 9-7.5 234.4 282.4 285.3c138.7-39.5 247.6-149.9 284.7-289.6z"/><path opacity=".12" d="M829.3 537.8L599.4 298.7l-329.7 9-7.5 234.4 282.4 285.3c138.7-39.5 247.6-149.9 284.7-289.6z"/><g><defs><path id="a" d="M259.3 296.3h344.4v282.6H259.3z"/></defs><clipPath id="b"><use xlink:href="#a" overflow="visible"/></clipPath><path clip-path="url(#b)" fill="#FFF" d="M591.4 296.3H271.9c-6.7 0-12.2 5.5-12.2 12.2v226.3c0 6.7 5.5 12.2 12.2 12.2h125.6v20h-60.1v11.9h163.1V567h-34.7v-20h126.5v-48.9H279.9c-6.4 0-11.5-5.2-11.5-11.5V315.2c0-6.4 5.2-11.5 11.5-11.5h303.6c6.4 0 11.5 5.2 11.5 11.5V417h8.7V308.5c0-6.8-5.5-12.2-12.3-12.2m-159.7 210c7.4 0 13.4 6 13.4 13.4s-6 13.4-13.4 13.4-13.4-6-13.4-13.4 6-13.4 13.4-13.4"/><path clip-path="url(#b)" fill="#FFF" d="M259.3 308.5V417h8.6V315.2c0-6.4 5.2-11.5 11.5-11.5H583c6.4 0 11.5 5.2 11.5 11.5v171.4c0 6.4-5.2 11.5-11.5 11.5H270.6V547h126.5v19.9h-34.7v11.9h163.1v-11.9h-60.1V547H591c6.7 0 12.2-5.5 12.2-12.2V308.5c0-6.7-5.5-12.2-12.2-12.2H271.5c-6.8 0-12.2 5.5-12.2 12.2m185.3 211.2c0 7.4-6 13.4-13.4 13.4s-13.4-6-13.4-13.4 6-13.4 13.4-13.4 13.4 6 13.4 13.4"/><path clip-path="url(#b)" fill="#FFF" d="M283.3 403.7h92.1v54.1h-92.1zM578 416.9h-77.4v40.9h-14.7v-54.1H578M283.3 465.9H578V489H283.3zM384.6 403.7h92.1v54.1h-92.1z"/><path clip-path="url(#b)" fill="#FFF" d="M485.8 403.7h92.1v54.1h-92.1zM283.3 337.5h294.8v57.3H283.3zM283.3 316.4h294.8v13.9H283.3z"/></g></svg>