
<!-- Generator: Adobe Illustrator 17.1.0, SVG Export Plug-In . SVG Version: 6.00 Build 0)  -->
<!DOCTYPE svg PUBLIC "-//W3C//DTD SVG 1.1//EN" "http://www.w3.org/Graphics/SVG/1.1/DTD/svg11.dtd">
<svg version="1.1" xmlns="http://www.w3.org/2000/svg" xmlns:xlink="http://www.w3.org/1999/xlink" x="0px" y="0px"
	 viewBox="0 0 864 864" enable-background="new 0 0 864 864" xml:space="preserve">
<g id="Layer_1">
	<circle fill="#F69223" cx="432" cy="432" r="411"/>
</g>
<g id="Shadow">
	<g>
		<path fill="#F69223" d="M829.3,537.8L599.4,298.7l-329.7,9l-7.5,234.4l282.4,285.3C683.3,787.9,792.2,677.5,829.3,537.8z"/>
		<path opacity="0.12" d="M829.3,537.8L599.4,298.7l-329.7,9l-7.5,234.4l282.4,285.3C683.3,787.9,792.2,677.5,829.3,537.8z"/>
	</g>
</g>
<g id="icon">
	<g>
		<defs>
			<rect id="SVGID_1_" x="259.3" y="296.3" width="344.4" height="282.6"/>
		</defs>
		<clipPath id="SVGID_2_">
			<use xlink:href="#SVGID_1_"  overflow="visible"/>
		</clipPath>
		<path clip-path="url(#SVGID_2_)" fill="#FFFFFF" d="M591.4,296.3H271.9c-6.7,0-12.2,5.5-12.2,12.2v226.3c0,6.7,5.5,12.2,12.2,12.2
			h125.6v20h-60.1v11.9h163.1v-11.9h-34.7v-20h126.5v-48.9H279.9c-6.4,0-11.5-5.2-11.5-11.5V315.2c0-6.4,5.2-11.5,11.5-11.5h303.6
			c6.4,0,11.5,5.2,11.5,11.5v101.8h8.7V308.5C603.7,301.7,598.2,296.3,591.4,296.3 M431.7,506.3c7.4,0,13.4,6,13.4,13.4
			c0,7.4-6,13.4-13.4,13.4s-13.4-6-13.4-13.4C418.3,512.3,424.3,506.3,431.7,506.3"/>
		<path clip-path="url(#SVGID_2_)" fill="#FFFFFF" d="M259.3,308.5V417h8.6V315.2c0-6.4,5.2-11.5,11.5-11.5H583
			c6.4,0,11.5,5.2,11.5,11.5v171.4c0,6.4-5.2,11.5-11.5,11.5H270.6V547h126.5v19.9h-34.7v11.9h163.1v-11.9h-60.1V547H591
			c6.7,0,12.2-5.5,12.2-12.2V308.5c0-6.7-5.5-12.2-12.2-12.2H271.5C264.7,296.3,259.3,301.8,259.3,308.5 M444.6,519.7
			c0,7.4-6,13.4-13.4,13.4c-7.4,0-13.4-6-13.4-13.4c0-7.4,6-13.4,13.4-13.4C438.6,506.3,444.6,512.3,444.6,519.7"/>
		<rect x="283.3" y="403.7" clip-path="url(#SVGID_2_)" fill="#FFFFFF" width="92.1" height="54.1"/>
		<polygon clip-path="url(#SVGID_2_)" fill="#FFFFFF" points="578,416.9 500.6,416.9 500.6,457.8 485.9,457.8 485.9,403.7
			578,403.7 		"/>
		<rect x="283.3" y="465.9" clip-path="url(#SVGID_2_)" fill="#FFFFFF" width="294.7" height="23.1"/>
		<rect x="384.6" y="403.7" clip-path="url(#SVGID_2_)" fill="#FFFFFF" width="92.1" height="54.1"/>
		<rect x="485.8" y="403.7" clip-path="url(#SVGID_2_)" fill="#FFFFFF" width="92.1" height="54.1"/>
		<rect x="283.3" y="337.5" clip-path="url(#SVGID_2_)" fill="#FFFFFF" width="294.8" height="57.3"/>
		<rect x="283.3" y="316.4" clip-path="url(#SVGID_2_)" fill="#FFFFFF" width="294.8" height="13.9"/>
	</g>
</g>
</svg>
