
<!-- Generator: Adobe Illustrator 17.1.0, SVG Export Plug-In . SVG Version: 6.00 Build 0)  -->
<!DOCTYPE svg PUBLIC "-//W3C//DTD SVG 1.1//EN" "http://www.w3.org/Graphics/SVG/1.1/DTD/svg11.dtd">
<svg version="1.1" xmlns="http://www.w3.org/2000/svg" xmlns:xlink="http://www.w3.org/1999/xlink" x="0px" y="0px"
	 viewBox="0 0 864 864" enable-background="new 0 0 864 864" xml:space="preserve">
<g id="Circle">
	<circle fill="#F69223" cx="432" cy="432" r="411"/>
</g>
<g id="Shadow">
	<g>
		<path fill="#F69223" d="M814.5,582.6L552,321L314,548l267.1,267.1C687.7,773.6,772.6,688.9,814.5,582.6z"/>
		<path opacity="0.12" d="M814.5,582.6L552,321L314,548l267.1,267.1C687.7,773.6,772.6,688.9,814.5,582.6z"/>
	</g>
</g>
<g id="Icon">
	<g>
		<path fill="#FFFFFF" d="M556.7,526.7c0,16.5-13.5,30-30,30H337.3c-16.5,0-30-13.5-30-30V337.3c0-16.5,13.5-30,30-30h189.3
			c16.5,0,30,13.5,30,30V526.7z"/>
	</g>
	<g>
		<path fill="#F69223" d="M419.6,485.2c-2.8,0-5.5-1.1-7.6-3.1L380.1,452c-2.8-2.7-2.9-7.1-0.3-9.9c2.7-2.8,7.1-2.9,9.9-0.3
			l29.2,27.6l54.3-89.5c2-3.3,6.3-4.4,9.6-2.4c3.3,2,4.4,6.3,2.4,9.6L429,479.8c-1.8,2.9-4.7,4.9-7.9,5.3
			C420.5,485.2,420.1,485.2,419.6,485.2z"/>
	</g>
</g>
</svg>
