<svg xmlns="http://www.w3.org/2000/svg" viewBox="0 0 864 864"><circle fill="#F69223" cx="432" cy="432" r="411"/><path fill="#F69223" d="M814.5 582.6L552 321 314 548l267.1 267.1c106.6-41.5 191.5-126.2 233.4-232.5z"/><path opacity=".12" d="M814.5 582.6L552 321 314 548l267.1 267.1c106.6-41.5 191.5-126.2 233.4-232.5z"/><g><path fill="#FFF" d="M556.7 526.7c0 16.5-13.5 30-30 30H337.3c-16.5 0-30-13.5-30-30V337.3c0-16.5 13.5-30 30-30h189.3c16.5 0 30 13.5 30 30v189.4z"/><path fill="#F69223" d="M419.6 485.2c-2.8 0-5.5-1.1-7.6-3.1L380.1 452c-2.8-2.7-2.9-7.1-.3-9.9 2.7-2.8 7.1-2.9 9.9-.3l29.2 27.6 54.3-89.5c2-3.3 6.3-4.4 9.6-2.4 3.3 2 4.4 6.3 2.4 9.6L429 479.8c-1.8 2.9-4.7 4.9-7.9 5.3-.6.1-1 .1-1.5.1z"/></g></svg>