<?xml version="1.0" encoding="utf-8"?>
<!-- Generator: Adobe Illustrator 17.1.0, SVG Export Plug-In . SVG Version: 6.00 Build 0)  -->
<!DOCTYPE svg PUBLIC "-//W3C//DTD SVG 1.1//EN" "http://www.w3.org/Graphics/SVG/1.1/DTD/svg11.dtd">
<svg version="1.1" xmlns="http://www.w3.org/2000/svg" xmlns:xlink="http://www.w3.org/1999/xlink" x="0px" y="0px"
	 viewBox="0 0 864 864" enable-background="new 0 0 864 864" xml:space="preserve">
<g id="Layer_1">
	<circle fill="#F69223" cx="432" cy="432" r="411"/>
</g>
<g id="shadow">
	<g>
		<path fill="#F69223" d="M813.7,584.7L504.4,276.2l-194,10.4l-3.7,301.5l233.7,240.4C665.2,794.5,766.2,703.2,813.7,584.7z"/>
		<path opacity="0.12" d="M813.7,584.7L504.4,276.2l-194,10.4l-3.7,301.5l233.7,240.4C665.2,794.5,766.2,703.2,813.7,584.7z"/>
	</g>
</g>
<g id="icon">
	<g>
		<defs>
			<rect id="SVGID_1_" x="303.7" y="273.8" width="256.7" height="316.3"/>
		</defs>
		<clipPath id="SVGID_2_">
			<use xlink:href="#SVGID_1_"  overflow="visible"/>
		</clipPath>
		<path clip-path="url(#SVGID_2_)" fill="#FFFFFF" d="M507,534.1c-5.1,0.1-10.5-0.7-15.9-1.6c-0.4-0.1-0.7-0.1-1.1-0.2v24H320.6
			V290.8h169.5v107.9c5.5-2.5,11.6-2.6,16.9-0.3V282.3c0-4.7-3.8-8.5-8.5-8.5H312.1c-4.7,0-8.5,3.8-8.5,8.5v299.4
			c0,4.7,3.8,8.5,8.5,8.5h186.4c4.7,0,8.5-3.8,8.5-8.5V534.1z M405.4,578.9c-3.1,0-5.6-2.5-5.6-5.6s2.5-5.6,5.6-5.6
			c3.1,0,5.6,2.5,5.6,5.6S408.5,578.9,405.4,578.9"/>
		<path clip-path="url(#SVGID_2_)" fill="#FFFFFF" d="M505.6,410.8c-5.3-5.3-14.8-2.9-17.8,6.1c-5-5-17,1-20,10L419.9,379
			c-3.3-3.3-8.7-3.3-12,0c-3.3,3.3-3.3,8.7,0,12l47.9,47.9c1.1,1.1,1.1,2.9,0,4c-1.1,1.1-2.9,1.1-4,0L409.9,401
			c-3.3-3.3-8.7-3.3-12,0c-3.3,3.3-3.3,8.7,0,12c0.1,0.1,0.2,0.2,0.3,0.3c0.1,0.1,0.1,0.1,0.2,0.2c4.8,4.8,61.1,61.1,74.4,74.4
			c2.4,2.4,0.6,2.9-4.4,3.9c-6,1.2-17.2,4.1-26.2,13.1c-8.3,8.3-10.5,15.7-2.2,24.1c2.4,2.4,6.1,2.6,8.8,0
			c21.5-21.5,55.8,1.1,65.6-8.8c18.5-18.5,30.6-30.6,39.4-39.4c8.7-8.7,8.7-13.1,0-21.9C540.2,445.4,510.9,416.1,505.6,410.8"/>
		<path clip-path="url(#SVGID_2_)" fill="#FFFFFF" d="M401.1,360c0,3.1,2.5,5.6,5.6,5.6h19.8c3.1,0,5.6-2.5,5.6-5.6v-21.2
			c0-3.1-2.5-5.6-5.6-5.6c-3.1,0-5.6,2.5-5.6,5.6v6.8c-6.8-5.2-15.2-8.2-24-8.2c-21.8,0-39.5,17.7-39.5,39.5
			c0,13.4,6.7,25.8,18,33.1c1,0.6,2,0.9,3.1,0.9c1.8,0,3.7-0.9,4.7-2.6c1.7-2.6,1-6.1-1.6-7.8c-8-5.2-12.8-14.1-12.8-23.7
			c0-15.6,12.7-28.2,28.2-28.2c6.2,0,12.1,2.1,16.9,5.6h-7C403.6,354.3,401.1,356.9,401.1,360"/>
	</g>
</g>
</svg>
