<svg xmlns="http://www.w3.org/2000/svg" xmlns:xlink="http://www.w3.org/1999/xlink" viewBox="0 0 864 864"><circle fill="#F69223" cx="432" cy="432" r="411"/><path fill="#F69223" d="M813.7 584.7L504.4 276.2l-194 10.4-3.7 301.5 233.7 240.4c124.8-34 225.8-125.3 273.3-243.8z"/><path opacity=".12" d="M813.7 584.7L504.4 276.2l-194 10.4-3.7 301.5 233.7 240.4c124.8-34 225.8-125.3 273.3-243.8z"/><g><defs><path id="a" d="M303.7 273.8h256.7v316.3H303.7z"/></defs><clipPath id="b"><use xlink:href="#a" overflow="visible"/></clipPath><path clip-path="url(#b)" fill="#FFF" d="M507 534.1c-5.1.1-10.5-.7-15.9-1.6-.4-.1-.7-.1-1.1-.2v24H320.6V290.8h169.5v107.9c5.5-2.5 11.6-2.6 16.9-.3V282.3c0-4.7-3.8-8.5-8.5-8.5H312.1c-4.7 0-8.5 3.8-8.5 8.5v299.4c0 4.7 3.8 8.5 8.5 8.5h186.4c4.7 0 8.5-3.8 8.5-8.5v-47.6zm-101.6 44.8c-3.1 0-5.6-2.5-5.6-5.6s2.5-5.6 5.6-5.6c3.1 0 5.6 2.5 5.6 5.6s-2.5 5.6-5.6 5.6"/><path clip-path="url(#b)" fill="#FFF" d="M505.6 410.8c-5.3-5.3-14.8-2.9-17.8 6.1-5-5-17 1-20 10L419.9 379c-3.3-3.3-8.7-3.3-12 0-3.3 3.3-3.3 8.7 0 12l47.9 47.9c1.1 1.1 1.1 2.9 0 4s-2.9 1.1-4 0L409.9 401c-3.3-3.3-8.7-3.3-12 0-3.3 3.3-3.3 8.7 0 12l.3.3.2.2 74.4 74.4c2.4 2.4.6 2.9-4.4 3.9-6 1.2-17.2 4.1-26.2 13.1-8.3 8.3-10.5 15.7-2.2 24.1 2.4 2.4 6.1 2.6 8.8 0 21.5-21.5 55.8 1.1 65.6-8.8l39.4-39.4c8.7-8.7 8.7-13.1 0-21.9-13.6-13.5-42.9-42.8-48.2-48.1M401.1 360c0 3.1 2.5 5.6 5.6 5.6h19.8c3.1 0 5.6-2.5 5.6-5.6v-21.2c0-3.1-2.5-5.6-5.6-5.6-3.1 0-5.6 2.5-5.6 5.6v6.8c-6.8-5.2-15.2-8.2-24-8.2-21.8 0-39.5 17.7-39.5 39.5 0 13.4 6.7 25.8 18 33.1 1 .6 2 .9 3.1.9 1.8 0 3.7-.9 4.7-2.6 1.7-2.6 1-6.1-1.6-7.8-8-5.2-12.8-14.1-12.8-23.7 0-15.6 12.7-28.2 28.2-28.2 6.2 0 12.1 2.1 16.9 5.6h-7c-3.3.1-5.8 2.7-5.8 5.8"/></g></svg>