
<!-- Generator: Adobe Illustrator 17.1.0, SVG Export Plug-In . SVG Version: 6.00 Build 0)  -->
<!DOCTYPE svg PUBLIC "-//W3C//DTD SVG 1.1//EN" "http://www.w3.org/Graphics/SVG/1.1/DTD/svg11.dtd">
<svg version="1.1" xmlns="http://www.w3.org/2000/svg" xmlns:xlink="http://www.w3.org/1999/xlink" x="0px" y="0px"
	 viewBox="0 0 864 864" enable-background="new 0 0 864 864" xml:space="preserve">
<g id="Layer_1">
	<circle fill="#F69223" cx="432" cy="432" r="411"/>
</g>
<g id="shadow">
	<g>
		<path fill="#F69223" d="M832.4,525.3L653.9,349.6l-152.2-12l-43.8-42.8l-11.1,157.5L322.8,331l-41.8-0.5l-91.3,202.6l311.1,304.1
			C664.4,809.7,795.2,685.4,832.4,525.3z"/>
		<path opacity="0.12" d="M832.4,525.3L653.9,349.6l-152.2-12l-43.8-42.8l-11.1,157.5L322.8,331l-41.8-0.5l-91.3,202.6l311.1,304.1
			C664.4,809.7,795.2,685.4,832.4,525.3z"/>
	</g>
</g>
<g id="icon">
	<g>
			<path fill="#FFFFFF" d="M355,495.6H248.7L231.2,534h-41.6l91.3-203.4h41.8L414,534h-41.9L355,495.6z M301.9,373.2l-37.8,86.6
				h75.6L301.9,373.2z"/>
			<path fill="#FFFFFF" d="M668.2,389.5c0,15.7-7.6,30.8-26.4,39.2c23.8,7.3,32.6,32.6,32.6,45.3c0,45.3-34,59.9-76.1,59.9
				c-32.3,0-64.2,0-96.5,0V330.5c32,0,64.2,0,96.5,0C638.3,330.5,668.2,348.5,668.2,389.5z M539.5,412.2h58.7
				c24.1,0,32-10.2,32-21.8c0-9.3-7.6-25-32-25h-58.7V412.2z M539.5,498.2h58.7c15.7,0,38.1-5.2,38.1-24.4
				c0-18.3-22.4-27.9-38.1-27.9h-58.7V498.2z"/>
			<rect x="446.7" y="294.7" fill="#FFFFFF" width="11.1" height="274.5"/>
	</g>
</g>
</svg>
