<svg xmlns="http://www.w3.org/2000/svg" viewBox="0 0 864 864"><circle fill="#F69223" cx="432" cy="432" r="411"/><path fill="#F69223" d="M832.4 525.3L653.9 349.6l-152.2-12-43.8-42.8-11.1 157.5-124-121.3-41.8-.5-91.3 202.6 311.1 304.1c163.6-27.5 294.4-151.8 331.6-311.9z"/><path opacity=".12" d="M832.4 525.3L653.9 349.6l-152.2-12-43.8-42.8-11.1 157.5-124-121.3-41.8-.5-91.3 202.6 311.1 304.1c163.6-27.5 294.4-151.8 331.6-311.9z"/><g><path fill="#FFF" d="M355 495.6H248.7L231.2 534h-41.6l91.3-203.4h41.8L414 534h-41.9L355 495.6zm-53.1-122.4l-37.8 86.6h75.6l-37.8-86.6zM668.2 389.5c0 15.7-7.6 30.8-26.4 39.2 23.8 7.3 32.6 32.6 32.6 45.3 0 45.3-34 59.9-76.1 59.9h-96.5V330.5h96.5c40 0 69.9 18 69.9 59zm-128.7 22.7h58.7c24.1 0 32-10.2 32-21.8 0-9.3-7.6-25-32-25h-58.7v46.8zm0 86h58.7c15.7 0 38.1-5.2 38.1-24.4 0-18.3-22.4-27.9-38.1-27.9h-58.7v52.3zM446.7 294.7h11.1v274.5h-11.1z"/></g></svg>