<svg xmlns="http://www.w3.org/2000/svg" viewBox="0 0 864 864"><circle fill="#F69223" cx="432" cy="432" r="411"/><path fill="#F69223" d="M832.2 525.9l-240.6-240-290.8.6-8 14.8 14.5 14.9-26.9 12.1-8.9 248.7 256.4 254.7c150.6-35.9 269-154.8 304.3-305.8z"/><path opacity=".12" d="M832.2 525.9l-240.6-240-290.8.6-8 14.8 14.5 14.9-26.9 12.1-8.9 248.7 256.4 254.7c150.6-35.9 269-154.8 304.3-305.8z"/><g><g fill="#FFF"><path d="M562.7 313H278.1c-4.8 0-8.7 3.9-8.7 8.7v249.7c0 4.8 3.9 8.7 8.7 8.7h284.5c4.8 0 8.7-3.9 8.7-8.7V321.7c.1-4.8-3.8-8.7-8.6-8.7m-8.8 249.7H286.8V347.8h267.1v214.9z"/><path d="M299.6 538.1c.8.9 2 1.3 3.2 1.3h95.8c1.2 0 2.3-.4 3.2-1.3.8-.9 1.2-1.8 1.2-3v-30.5c0-15.6-2.7-35-7.1-43.7-4.2-8.5-16.4-9.5-24.9-12.8-2.8 11.3-7.3 29.2-12.6 39.7l-4.7-25.8 1.2-4.6-4.2-2.8-4.2 2.8 1.2 4.6-4.7 25.8c-5.3-10.5-9.8-28.3-12.6-39.7-8.5 3.3-20.7 4.2-24.9 12.8-4.3 8.8-7.1 28.2-7.1 43.7v30.5c0 1.2.4 2.1 1.2 3M350.7 442.3c7.4 0 13.5-5.8 17.9-13.5 4.5-7.8 9.7-25.8 7.8-34.2-2.6-11.9-14.2-19.1-25.7-19.1-11.6 0-23.2 7.2-25.7 19.1-1.8 8.5 3.3 26.4 7.8 34.2 4.4 7.7 10.5 13.5 17.9 13.5M585.9 283.9H301.3c-4.8 0-8.7 3.9-8.7 8.7v8.7H583V551h2.9c4.8 0 8.7-3.9 8.7-8.7V292.6c0-4.8-3.9-8.7-8.7-8.7M420.4 469.7h104.5c3.2 0 5.8-2.6 5.8-5.8s-2.6-5.8-5.8-5.8H420.4c-3.2 0-5.8 2.6-5.8 5.8s2.6 5.8 5.8 5.8M420.4 493H461c3.2 0 5.8-2.6 5.8-5.8s-2.6-5.8-5.8-5.8h-40.6c-3.2 0-5.8 2.6-5.8 5.8s2.6 5.8 5.8 5.8M524.9 481.4h-40.6c-3.2 0-5.8 2.6-5.8 5.8s2.6 5.8 5.8 5.8h40.6c3.2 0 5.8-2.6 5.8-5.8s-2.6-5.8-5.8-5.8M420.4 516.2h104.5c3.2 0 5.8-2.6 5.8-5.8s-2.6-5.8-5.8-5.8H420.4c-3.2 0-5.8 2.6-5.8 5.8s2.6 5.8 5.8 5.8M420.4 539.4h81.3c3.2 0 5.8-2.6 5.8-5.8s-2.6-5.8-5.8-5.8h-81.3c-3.2 0-5.8 2.6-5.8 5.8s2.6 5.8 5.8 5.8"/><path d="M420.4 423.3h81.3c3.2 0 5.8-2.6 5.8-5.8 0-3.2-2.6-5.8-5.8-5.8h-81.3c-3.2 0-5.8 2.6-5.8 5.8 0 3.2 2.6 5.8 5.8 5.8M420.4 400.1h104.5c3.2 0 5.8-2.6 5.8-5.8s-2.6-5.8-5.8-5.8H420.4c-3.2 0-5.8 2.6-5.8 5.8s2.6 5.8 5.8 5.8"/></g></g></svg>