<?xml version="1.0" encoding="utf-8"?>
<!-- Generator: Adobe Illustrator 17.1.0, SVG Export Plug-In . SVG Version: 6.00 Build 0)  -->
<!DOCTYPE svg PUBLIC "-//W3C//DTD SVG 1.1//EN" "http://www.w3.org/Graphics/SVG/1.1/DTD/svg11.dtd">
<svg version="1.1" xmlns="http://www.w3.org/2000/svg" xmlns:xlink="http://www.w3.org/1999/xlink" x="0px" y="0px"
	 viewBox="0 0 864 864" enable-background="new 0 0 864 864" xml:space="preserve">
<g id="circle">
	<circle fill="#F69223" cx="432" cy="432" r="411"/>
</g>
<g id="shadow">
	<g>
		<path fill="#F69223" d="M832.2,525.9l-240.6-240l-290.8,0.6l-8,14.8l14.5,14.9l-26.9,12.1l-8.9,248.7l256.4,254.7
			C678.5,795.8,796.9,676.9,832.2,525.9z"/>
		<path opacity="0.12" d="M832.2,525.9l-240.6-240l-290.8,0.6l-8,14.8l14.5,14.9l-26.9,12.1l-8.9,248.7l256.4,254.7
			C678.5,795.8,796.9,676.9,832.2,525.9z"/>
	</g>
</g>
<g id="icon">
	<g>
		<path fill="#FFFFFF" d="M562.7,313H278.1c-4.8,0-8.7,3.9-8.7,8.7v249.7c0,4.8,3.9,8.7,8.7,8.7h284.5c4.8,0,8.7-3.9,8.7-8.7V321.7
			C571.4,316.9,567.5,313,562.7,313 M553.9,562.7H286.8V347.8h267.1V562.7z"/>
		<path fill="#FFFFFF" d="M299.6,538.1c0.8,0.9,2,1.3,3.2,1.3h95.8c1.2,0,2.3-0.4,3.2-1.3c0.8-0.9,1.2-1.8,1.2-3c0-16,0-24.6,0-30.5
			c0-15.6-2.7-35-7.1-43.7c-4.2-8.5-16.4-9.5-24.9-12.8c-2.8,11.3-7.3,29.2-12.6,39.7l-4.7-25.8l1.2-4.6l-4.2-2.8l-4.2,2.8l1.2,4.6
			l-4.7,25.8c-5.3-10.5-9.8-28.3-12.6-39.7c-8.5,3.3-20.7,4.2-24.9,12.8c-4.3,8.8-7.1,28.2-7.1,43.7c0,5.9,0,14.5,0,30.5
			C298.4,536.3,298.8,537.2,299.6,538.1"/>
		<path fill="#FFFFFF" d="M350.7,442.3c7.4,0,13.5-5.8,17.9-13.5c4.5-7.8,9.7-25.8,7.8-34.2c-2.6-11.9-14.2-19.1-25.7-19.1
			c-11.6,0-23.2,7.2-25.7,19.1c-1.8,8.5,3.3,26.4,7.8,34.2C337.2,436.5,343.3,442.3,350.7,442.3"/>
		<path fill="#FFFFFF" d="M585.9,283.9H301.3c-4.8,0-8.7,3.9-8.7,8.7v8.7H583V551h2.9c4.8,0,8.7-3.9,8.7-8.7V292.6
			C594.6,287.8,590.7,283.9,585.9,283.9"/>
		<path fill="#FFFFFF" d="M420.4,469.7h104.5c3.2,0,5.8-2.6,5.8-5.8s-2.6-5.8-5.8-5.8H420.4c-3.2,0-5.8,2.6-5.8,5.8
			S417.2,469.7,420.4,469.7"/>
		<path fill="#FFFFFF" d="M420.4,493H461c3.2,0,5.8-2.6,5.8-5.8s-2.6-5.8-5.8-5.8h-40.6c-3.2,0-5.8,2.6-5.8,5.8S417.2,493,420.4,493
			"/>
		<path fill="#FFFFFF" d="M524.9,481.4h-40.6c-3.2,0-5.8,2.6-5.8,5.8s2.6,5.8,5.8,5.8h40.6c3.2,0,5.8-2.6,5.8-5.8
			S528.1,481.4,524.9,481.4"/>
		<path fill="#FFFFFF" d="M420.4,516.2h104.5c3.2,0,5.8-2.6,5.8-5.8s-2.6-5.8-5.8-5.8H420.4c-3.2,0-5.8,2.6-5.8,5.8
			S417.2,516.2,420.4,516.2"/>
		<path fill="#FFFFFF" d="M420.4,539.4h81.3c3.2,0,5.8-2.6,5.8-5.8s-2.6-5.8-5.8-5.8h-81.3c-3.2,0-5.8,2.6-5.8,5.8
			S417.2,539.4,420.4,539.4"/>
		<path fill="#FFFFFF" d="M420.4,423.3h81.3c3.2,0,5.8-2.6,5.8-5.8c0-3.2-2.6-5.8-5.8-5.8h-81.3c-3.2,0-5.8,2.6-5.8,5.8
			C414.6,420.7,417.2,423.3,420.4,423.3"/>
		<path fill="#FFFFFF" d="M420.4,400.1h104.5c3.2,0,5.8-2.6,5.8-5.8s-2.6-5.8-5.8-5.8H420.4c-3.2,0-5.8,2.6-5.8,5.8
			S417.2,400.1,420.4,400.1"/>
	</g>
</g>
</svg>
