<?xml version="1.0" encoding="utf-8"?>
<!-- Generator: Adobe Illustrator 17.1.0, SVG Export Plug-In . SVG Version: 6.00 Build 0)  -->
<!DOCTYPE svg PUBLIC "-//W3C//DTD SVG 1.1//EN" "http://www.w3.org/Graphics/SVG/1.1/DTD/svg11.dtd">
<svg version="1.1" xmlns="http://www.w3.org/2000/svg" xmlns:xlink="http://www.w3.org/1999/xlink" x="0px" y="0px"
	 viewBox="0 0 864 864" enable-background="new 0 0 864 864" xml:space="preserve">
<g id="Circle">
	<circle fill="#F69223" cx="432" cy="432" r="411"/>
	<circle fill="#F69223" cx="432" cy="432" r="411"/>
</g>
<g id="Shadow">
	<g>
		<path fill="#F69223" d="M834.1,517.7L569.7,257.3l-306.7,13l-8,291.3l274.9,269.6C682.3,794,801.4,671.8,834.1,517.7z"/>
		<path opacity="0.12" d="M834.1,517.7L569.7,257.3l-306.7,13l-8,291.3l274.9,269.6C682.3,794,801.4,671.8,834.1,517.7z"/>
	</g>
</g>
<g id="icon">
	<g>
		<defs>
			<rect id="SVGID_1_" x="253.9" y="256.6" width="319.7" height="309.4"/>
		</defs>
		<clipPath id="SVGID_2_">
			<use xlink:href="#SVGID_1_"  overflow="visible"/>
		</clipPath>
		<path clip-path="url(#SVGID_2_)" fill="#FFFFFF" d="M566.9,256.6H260.5c-3.6,0-6.6,3.1-6.6,6.6l0,295c0,4.3,3.5,7.7,7.7,7.7h304.2
			c4.3,0,7.7-3.5,7.7-7.7v-295C573.6,259.7,570.5,256.6,566.9,256.6 M558.1,550.5H269.3V272.1h288.8V550.5z"/>
		<path clip-path="url(#SVGID_2_)" fill="#FFFFFF" d="M295.1,375.2h237.2c2.8,0,5.2-2.3,5.2-5.2v-72.2c0-2.8-2.3-5.2-5.2-5.2H295.1
			c-2.8,0-5.2,2.3-5.2,5.2V370C290,372.9,292.3,375.2,295.1,375.2 M329.8,364.9l83.9-25.5l83.9,25.5H329.8z M527.2,363.1l-95.7-29.1
			l95.7-29.1V363.1z M497.7,303l-83.9,25.5L329.8,303H497.7z M300.3,304.8l95.7,29.1l-95.7,29.1V304.8z"/>
		<path clip-path="url(#SVGID_2_)" fill="#FFFFFF" d="M398.3,395.8h-51.6c-2.8,0-5.2,2.3-5.2,5.2s2.3,5.2,5.2,5.2h51.6
			c2.8,0,5.2-2.3,5.2-5.2S401.1,395.8,398.3,395.8"/>
		<path clip-path="url(#SVGID_2_)" fill="#FFFFFF" d="M398.3,416.5h-51.6c-2.8,0-5.2,2.3-5.2,5.2s2.3,5.2,5.2,5.2h51.6
			c2.8,0,5.2-2.3,5.2-5.2S401.1,416.5,398.3,416.5"/>
		<path clip-path="url(#SVGID_2_)" fill="#FFFFFF" d="M398.3,478.3h-51.6c-2.8,0-5.2,2.3-5.2,5.2c0,2.8,2.3,5.2,5.2,5.2h51.6
			c2.8,0,5.2-2.3,5.2-5.2C403.4,480.6,401.1,478.3,398.3,478.3"/>
		<path clip-path="url(#SVGID_2_)" fill="#FFFFFF" d="M295.1,447.4h30.9c2.8,0,5.2-2.3,5.2-5.2V401c0-2.8-2.3-5.2-5.2-5.2h-30.9
			c-2.8,0-5.2,2.3-5.2,5.2v41.3C290,445.1,292.3,447.4,295.1,447.4 M300.3,406.1h20.6v30.9h-20.6V406.1z"/>
		<path clip-path="url(#SVGID_2_)" fill="#FFFFFF" d="M295.1,529.9h30.9c2.8,0,5.2-2.3,5.2-5.2v-41.3c0-2.8-2.3-5.2-5.2-5.2h-30.9
			c-2.8,0-5.2,2.3-5.2,5.2v41.3C290,527.6,292.3,529.9,295.1,529.9 M300.3,488.6h20.6v30.9h-20.6V488.6z"/>
		<path clip-path="url(#SVGID_2_)" fill="#FFFFFF" d="M346.7,447.4h30.9c2.8,0,5.2-2.3,5.2-5.2c0-2.8-2.3-5.2-5.2-5.2h-30.9
			c-2.8,0-5.2,2.3-5.2,5.2C341.5,445.1,343.8,447.4,346.7,447.4"/>
		<path clip-path="url(#SVGID_2_)" fill="#FFFFFF" d="M367.3,499h-20.6c-2.8,0-5.2,2.3-5.2,5.2c0,2.8,2.3,5.2,5.2,5.2h20.6
			c2.8,0,5.2-2.3,5.2-5.2C372.5,501.3,370.2,499,367.3,499"/>
		<path clip-path="url(#SVGID_2_)" fill="#FFFFFF" d="M532.3,395.8H429.2c-2.8,0-5.2,2.3-5.2,5.2s2.3,5.2,5.2,5.2h103.1
			c2.8,0,5.2-2.3,5.2-5.2S535.2,395.8,532.3,395.8"/>
		<path clip-path="url(#SVGID_2_)" fill="#FFFFFF" d="M532.3,416.5H429.2c-2.8,0-5.2,2.3-5.2,5.2s2.3,5.2,5.2,5.2h103.1
			c2.8,0,5.2-2.3,5.2-5.2S535.2,416.5,532.3,416.5"/>
		<path clip-path="url(#SVGID_2_)" fill="#FFFFFF" d="M532.3,499H429.2c-2.8,0-5.2,2.3-5.2,5.2c0,2.8,2.3,5.2,5.2,5.2h103.1
			c2.8,0,5.2-2.3,5.2-5.2C537.5,501.3,535.2,499,532.3,499"/>
		<path clip-path="url(#SVGID_2_)" fill="#FFFFFF" d="M491.1,519.6h-61.9c-2.8,0-5.2,2.3-5.2,5.2c0,2.8,2.3,5.2,5.2,5.2h61.9
			c2.8,0,5.2-2.3,5.2-5.2C496.2,521.9,493.9,519.6,491.1,519.6"/>
		<path clip-path="url(#SVGID_2_)" fill="#FFFFFF" d="M532.3,457.7H429.2c-2.8,0-5.2,2.3-5.2,5.2s2.3,5.2,5.2,5.2h103.1
			c2.8,0,5.2-2.3,5.2-5.2S535.2,457.7,532.3,457.7"/>
		<path clip-path="url(#SVGID_2_)" fill="#FFFFFF" d="M429.2,447.4h41.3c2.8,0,5.2-2.3,5.2-5.2c0-2.8-2.3-5.2-5.2-5.2h-41.3
			c-2.8,0-5.2,2.3-5.2,5.2C424,445.1,426.3,447.4,429.2,447.4"/>
		<path clip-path="url(#SVGID_2_)" fill="#FFFFFF" d="M429.2,488.6h41.3c2.8,0,5.2-2.3,5.2-5.2c0-2.8-2.3-5.2-5.2-5.2h-41.3
			c-2.8,0-5.2,2.3-5.2,5.2C424,486.3,426.3,488.6,429.2,488.6"/>
		<path clip-path="url(#SVGID_2_)" fill="#FFFFFF" d="M522,488.6c2.8,0,5.2-2.3,5.2-5.2c0-2.8-2.3-5.2-5.2-5.2h-30.9
			c-2.8,0-5.2,2.3-5.2,5.2c0,2.8,2.3,5.2,5.2,5.2H522z"/>
	</g>
</g>
</svg>
