<svg xmlns="http://www.w3.org/2000/svg" xmlns:xlink="http://www.w3.org/1999/xlink" viewBox="0 0 864 864"><g fill="#F69223"><circle cx="432" cy="432" r="411"/><circle cx="432" cy="432" r="411"/></g><path fill="#F69223" d="M834.1 517.7L569.7 257.3l-306.7 13-8 291.3 274.9 269.6C682.3 794 801.4 671.8 834.1 517.7z"/><path opacity=".12" d="M834.1 517.7L569.7 257.3l-306.7 13-8 291.3 274.9 269.6C682.3 794 801.4 671.8 834.1 517.7z"/><g><defs><path id="a" d="M253.9 256.6h319.7V566H253.9z"/></defs><clipPath id="b"><use xlink:href="#a" overflow="visible"/></clipPath><path clip-path="url(#b)" fill="#FFF" d="M566.9 256.6H260.5c-3.6 0-6.6 3.1-6.6 6.6v295c0 4.3 3.5 7.7 7.7 7.7h304.2c4.3 0 7.7-3.5 7.7-7.7v-295c.1-3.5-3-6.6-6.6-6.6m-8.8 293.9H269.3V272.1h288.8v278.4z"/><path clip-path="url(#b)" fill="#FFF" d="M295.1 375.2h237.2c2.8 0 5.2-2.3 5.2-5.2v-72.2c0-2.8-2.3-5.2-5.2-5.2H295.1c-2.8 0-5.2 2.3-5.2 5.2V370c.1 2.9 2.4 5.2 5.2 5.2m34.7-10.3l83.9-25.5 83.9 25.5H329.8zm197.4-1.8L431.5 334l95.7-29.1v58.2zM497.7 303l-83.9 25.5-84-25.5h167.9zm-197.4 1.8l95.7 29.1-95.7 29.1v-58.2zM398.3 395.8h-51.6c-2.8 0-5.2 2.3-5.2 5.2s2.3 5.2 5.2 5.2h51.6c2.8 0 5.2-2.3 5.2-5.2s-2.4-5.2-5.2-5.2M398.3 416.5h-51.6c-2.8 0-5.2 2.3-5.2 5.2s2.3 5.2 5.2 5.2h51.6c2.8 0 5.2-2.3 5.2-5.2s-2.4-5.2-5.2-5.2M398.3 478.3h-51.6c-2.8 0-5.2 2.3-5.2 5.2 0 2.8 2.3 5.2 5.2 5.2h51.6c2.8 0 5.2-2.3 5.2-5.2-.1-2.9-2.4-5.2-5.2-5.2M295.1 447.4H326c2.8 0 5.2-2.3 5.2-5.2V401c0-2.8-2.3-5.2-5.2-5.2h-30.9c-2.8 0-5.2 2.3-5.2 5.2v41.3c.1 2.8 2.4 5.1 5.2 5.1m5.2-41.3h20.6V437h-20.6v-30.9zM295.1 529.9H326c2.8 0 5.2-2.3 5.2-5.2v-41.3c0-2.8-2.3-5.2-5.2-5.2h-30.9c-2.8 0-5.2 2.3-5.2 5.2v41.3c.1 2.9 2.4 5.2 5.2 5.2m5.2-41.3h20.6v30.9h-20.6v-30.9zM346.7 447.4h30.9c2.8 0 5.2-2.3 5.2-5.2 0-2.8-2.3-5.2-5.2-5.2h-30.9c-2.8 0-5.2 2.3-5.2 5.2 0 2.9 2.3 5.2 5.2 5.2M367.3 499h-20.6c-2.8 0-5.2 2.3-5.2 5.2 0 2.8 2.3 5.2 5.2 5.2h20.6c2.8 0 5.2-2.3 5.2-5.2 0-2.9-2.3-5.2-5.2-5.2M532.3 395.8H429.2c-2.8 0-5.2 2.3-5.2 5.2s2.3 5.2 5.2 5.2h103.1c2.8 0 5.2-2.3 5.2-5.2s-2.3-5.2-5.2-5.2M532.3 416.5H429.2c-2.8 0-5.2 2.3-5.2 5.2s2.3 5.2 5.2 5.2h103.1c2.8 0 5.2-2.3 5.2-5.2s-2.3-5.2-5.2-5.2M532.3 499H429.2c-2.8 0-5.2 2.3-5.2 5.2 0 2.8 2.3 5.2 5.2 5.2h103.1c2.8 0 5.2-2.3 5.2-5.2 0-2.9-2.3-5.2-5.2-5.2M491.1 519.6h-61.9c-2.8 0-5.2 2.3-5.2 5.2 0 2.8 2.3 5.2 5.2 5.2h61.9c2.8 0 5.2-2.3 5.2-5.2-.1-2.9-2.4-5.2-5.2-5.2M532.3 457.7H429.2c-2.8 0-5.2 2.3-5.2 5.2s2.3 5.2 5.2 5.2h103.1c2.8 0 5.2-2.3 5.2-5.2s-2.3-5.2-5.2-5.2M429.2 447.4h41.3c2.8 0 5.2-2.3 5.2-5.2 0-2.8-2.3-5.2-5.2-5.2h-41.3c-2.8 0-5.2 2.3-5.2 5.2 0 2.9 2.3 5.2 5.2 5.2M429.2 488.6h41.3c2.8 0 5.2-2.3 5.2-5.2 0-2.8-2.3-5.2-5.2-5.2h-41.3c-2.8 0-5.2 2.3-5.2 5.2 0 2.9 2.3 5.2 5.2 5.2M522 488.6c2.8 0 5.2-2.3 5.2-5.2 0-2.8-2.3-5.2-5.2-5.2h-30.9c-2.8 0-5.2 2.3-5.2 5.2 0 2.8 2.3 5.2 5.2 5.2H522z"/></g></svg>